<?xml version="1.0" standalone="no"?>
<!DOCTYPE svg PUBLIC "-//W3C//DTD SVG 20010904//EN"
 "http://www.w3.org/TR/2001/REC-SVG-20010904/DTD/svg10.dtd">
<svg version="1.0" xmlns="http://www.w3.org/2000/svg"
 width="1176.000000pt" height="1080.000000pt" viewBox="0 0 1176.000000 1080.000000"
 preserveAspectRatio="xMidYMid meet">

<g transform="translate(0.000000,1080.000000) scale(0.100000,-0.100000)"
fill="#000000" stroke="none">
<path d="M3665 10723 c5 -61 18 -585 36 -1396 0 -27 2 -29 9 -12 4 11 7 36 4
55 -2 19 -8 339 -14 710 -6 371 -13 685 -16 698 -2 12 -9 22 -14 22 -7 0 -8
-29 -5 -77z"/>
<path d="M3785 10688 c3 -62 10 -333 15 -603 18 -825 17 -800 37 -800 20 0 20
30 3 695 -5 195 -10 443 -10 550 0 229 -5 270 -31 270 -17 0 -18 -8 -14 -112z"/>
<path d="M4156 10773 c2 -16 8 -287 14 -603 6 -316 13 -652 15 -746 4 -161 3
-172 -15 -189 -11 -10 -20 -31 -20 -46 0 -16 -7 -48 -15 -72 -8 -24 -18 -61
-23 -83 l-8 -39 -59 -3 c-75 -4 -490 27 -521 38 -20 8 -23 17 -27 87 -5 97
-24 170 -45 182 -9 5 -71 17 -137 26 -75 10 -124 22 -131 31 -8 10 -14 158
-19 470 -4 251 -11 468 -14 483 -7 25 -8 25 -32 -19 l-25 -45 7 -255 c12 -434
11 -627 -3 -633 -19 -7 -311 33 -323 44 -5 6 -12 62 -15 127 -5 110 -6 115
-20 87 -8 -17 -17 -68 -20 -115 -5 -83 -6 -85 -31 -88 -15 -2 -29 -11 -32 -20
-2 -9 -25 -87 -50 -173 -53 -180 -61 -213 -87 -363 l-18 -111 21 -17 c12 -10
29 -16 37 -15 10 1 17 -11 21 -43 4 -25 14 -315 23 -645 36 -1306 32 -1226 53
-1280 l18 -50 3 55 c2 30 -1 233 -7 450 -20 753 -35 1520 -29 1525 3 4 16 0
27 -7 18 -11 23 -11 30 0 7 11 9 11 14 -2 13 -34 28 -429 47 -1256 11 -481 22
-914 24 -961 4 -84 19 -137 51 -182 15 -20 16 -14 10 88 -10 205 -26 1068 -27
1465 0 548 8 626 73 710 20 26 36 36 59 38 18 1 45 9 62 18 17 9 45 17 63 19
32 3 33 1 39 -39 12 -93 29 -620 51 -1626 31 -1395 24 -1230 53 -1273 52 -77
50 -179 17 1133 -25 1000 -39 1649 -39 1840 l-1 185 31 3 c20 2 38 -3 48 -14
14 -14 22 -15 43 -5 29 13 59 7 67 -15 6 -17 19 -424 36 -1154 6 -250 15 -603
20 -785 5 -181 14 -553 20 -825 12 -593 15 -632 41 -656 10 -9 21 -15 23 -13
2 2 0 135 -5 294 -52 1807 -75 3052 -58 3069 9 9 60 -12 84 -33 11 -10 37 -25
58 -32 20 -7 37 -17 37 -21 0 -4 9 -8 19 -8 20 0 24 -11 35 -95 9 -64 33 -895
61 -2090 29 -1232 33 -1321 59 -1294 2 2 0 153 -4 334 -5 182 -14 555 -20 830
-6 275 -15 682 -20 905 -17 691 -23 1242 -16 1303 8 59 26 75 45 39 13 -24 29
-204 36 -402 6 -169 49 -2056 61 -2703 7 -347 8 -358 28 -373 39 -27 42 -19
39 99 -1 61 -7 272 -13 467 -5 195 -12 463 -15 595 -3 132 -10 398 -15 590
-20 754 -22 1241 -7 1398 16 161 30 197 72 197 14 0 25 5 25 10 0 6 23 10 50
10 30 0 50 -4 50 -11 0 -7 11 -9 29 -6 26 6 29 3 35 -26 23 -124 38 -585 66
-2007 10 -547 21 -1089 24 -1203 l5 -208 -40 -28 -39 -29 75 -57 c42 -31 78
-55 81 -52 3 2 0 33 -5 68 -6 35 -15 246 -21 469 -11 449 -25 921 -40 1375 -5
165 -16 572 -25 905 -19 811 -24 989 -30 1095 -4 79 -22 662 -30 965 -1 58 -5
299 -9 535 -4 237 -9 449 -12 473 -6 46 -22 60 -18 15z m-856 -1733 c11 -7 -2
-10 -42 -10 -32 0 -58 4 -58 10 0 13 80 13 100 0z m-25 -105 c0 -16 -8 -21
-42 -23 -36 -3 -43 0 -43 15 0 30 18 41 53 34 23 -5 32 -12 32 -26z m92 -1 c8
-21 -16 -35 -40 -23 -14 8 -16 13 -6 25 15 19 38 18 46 -2z"/>
<path d="M7654 10718 c3 -46 9 -225 12 -398 6 -274 8 -346 14 -420 1 -10 4 -9
10 5 8 19 9 19 9 -2 1 -13 -3 -23 -9 -23 -6 0 -10 -52 -10 -135 0 -107 3 -136
15 -142 12 -7 16 -79 24 -428 9 -360 22 -1073 21 -1127 0 -14 8 -18 38 -18 75
0 79 4 77 73 -1 34 -6 159 -10 279 -4 119 -4 221 0 228 19 30 25 -27 25 -215
-1 -351 -3 -325 22 -334 15 -5 41 -2 77 11 43 15 56 17 62 6 9 -15 -86 -53
-160 -63 -58 -8 -75 -21 -90 -66 -6 -20 -21 -45 -31 -54 -20 -18 -20 -17 -20
24 0 26 -5 44 -14 47 -17 7 -28 44 -13 44 18 0 -56 70 -80 76 -23 6 -31 28
-14 38 14 9 20 70 10 120 -6 36 -5 56 6 83 27 65 20 98 -32 154 -25 27 -52 48
-59 45 -29 -11 -68 10 -76 41 -12 45 -89 106 -177 137 -52 19 -102 28 -175 32
-135 9 -192 -4 -286 -66 -170 -111 -201 -137 -239 -203 -16 -29 -46 -70 -66
-92 -59 -65 -65 -78 -75 -171 -23 -206 -48 -239 -155 -200 -14 5 -11 0 10 -18
l30 -26 -32 0 c-42 0 -42 -17 -2 -34 l31 -13 -32 -7 c-58 -11 -79 -7 -115 25
-37 33 -46 29 -17 -7 26 -33 55 -44 125 -46 71 -2 79 -12 46 -60 -24 -33 -26
-56 -4 -38 12 10 15 9 15 -7 0 -11 -12 -26 -26 -33 -22 -12 -27 -12 -34 0 -8
13 -10 12 -10 -2 0 -10 7 -18 15 -18 19 0 19 -11 0 -36 -17 -22 -20 -38 -5
-29 6 3 10 1 10 -5 0 -20 -21 -51 -53 -81 -43 -38 -14 -37 30 1 36 32 53 32
53 -1 0 -10 9 -39 21 -63 24 -52 18 -70 -37 -118 -46 -41 -71 -85 -79 -140 -4
-27 -11 -48 -15 -48 -11 0 -2 -83 18 -164 16 -66 16 -69 -3 -82 -26 -19 -59
-18 -51 1 6 17 -12 75 -25 75 -13 0 -30 -37 -23 -54 6 -16 -28 -40 -41 -28 -4
4 -5 -2 -2 -13 3 -11 9 -41 13 -68 5 -41 4 -46 -10 -41 -9 3 -19 16 -22 29 -4
15 -13 23 -27 22 -12 0 -30 3 -39 7 -25 11 -22 -5 9 -50 34 -51 70 -130 77
-174 6 -31 4 -30 -13 12 -10 26 -34 69 -53 95 -19 27 -37 56 -41 67 -6 15 -10
16 -22 6 -19 -16 -19 -82 -1 -144 12 -39 12 -47 1 -42 -7 2 -19 -2 -26 -10
-10 -12 -10 -36 2 -117 l14 -102 128 -2 c126 -2 128 -1 139 22 15 34 38 40 38
11 0 -18 7 -25 27 -29 50 -9 53 -3 53 106 0 63 4 97 9 92 12 -12 29 -81 37
-149 l6 -49 247 7 246 8 33 -31 c22 -22 27 -31 16 -31 -11 0 -14 -5 -10 -16
11 -29 -12 -44 -55 -38 -27 5 -39 3 -39 -5 0 -7 -4 -9 -10 -6 -5 3 -10 1 -10
-4 0 -6 5 -11 12 -11 6 0 9 -2 6 -5 -3 -3 -26 8 -51 25 -43 28 -50 30 -138 29
-68 -1 -84 -4 -59 -9 l35 -7 -32 -2 c-34 -1 -58 -21 -26 -21 19 0 43 -18 43
-32 0 -4 -6 -7 -12 -5 -7 1 -13 -7 -13 -18 0 -11 -8 -27 -17 -35 -20 -18 -14
-80 8 -80 8 0 14 -4 14 -10 0 -5 -4 -10 -10 -10 -5 0 -10 -12 -10 -26 0 -15
-12 -36 -31 -53 -26 -24 -30 -34 -25 -58 4 -18 1 -35 -8 -48 -9 -11 -16 -32
-16 -47 0 -18 -5 -28 -15 -28 -8 0 -15 -6 -15 -14 0 -7 -9 -25 -21 -40 -16
-21 -24 -24 -35 -16 -15 13 -35 5 -33 -13 4 -31 -1 -41 -13 -29 -7 7 -20 12
-30 12 -10 0 -18 7 -18 15 0 8 -11 17 -24 21 -14 3 -32 17 -41 31 -12 18 -24
23 -43 21 -19 -2 -27 2 -27 12 0 11 -11 14 -42 12 -33 -2 -41 1 -37 12 4 10
-9 18 -48 29 -68 19 -178 27 -178 13 0 -6 -5 -4 -10 4 -8 11 -9 7 -4 -15 3
-16 8 -36 10 -43 2 -7 -1 -22 -6 -32 -14 -26 -2 -50 24 -50 12 0 29 -9 39 -20
20 -24 35 -25 73 -5 35 18 39 14 25 -28 -12 -35 -7 -61 15 -87 7 -8 14 -31 15
-50 2 -19 8 -38 14 -42 5 -4 44 -4 87 -1 69 5 84 3 135 -19 65 -28 93 -40 108
-44 29 -7 83 -35 94 -47 9 -12 8 -16 -5 -21 -9 -4 -14 -13 -10 -21 3 -10 -1
-15 -14 -15 -24 0 -70 -21 -70 -32 0 -4 -5 -8 -12 -8 -17 0 -88 -33 -88 -41 0
-4 7 -9 15 -13 19 -7 19 -26 0 -26 -21 0 -19 -27 3 -39 36 -21 -24 -11 -118
19 -51 17 -95 29 -98 26 -3 -3 -10 -2 -16 3 -6 6 -45 19 -86 30 -51 14 -80 28
-90 43 -8 12 -23 29 -33 38 -10 8 -35 39 -55 69 -32 48 -34 56 -24 83 9 24 8
36 -5 64 -18 37 -34 46 -26 15 3 -11 -1 -37 -8 -58 -7 -21 -13 -48 -15 -60 -1
-12 -7 -29 -12 -39 -9 -16 -3 -22 36 -44 47 -25 47 -26 48 -80 1 -30 2 -60 3
-66 0 -6 20 -14 44 -18 53 -8 140 -38 149 -51 4 -5 8 -6 8 -1 0 5 21 -12 46
-38 26 -25 53 -46 60 -46 7 0 18 -8 23 -19 6 -10 23 -22 38 -26 15 -3 31 -11
34 -17 10 -16 -1 -38 -18 -38 -11 0 -13 -7 -9 -25 4 -14 3 -25 -1 -26 -50 -4
-68 -12 -93 -41 -17 -18 -30 -41 -30 -51 0 -28 -40 -41 -96 -29 -33 7 -54 7
-68 0 -17 -9 -14 -13 29 -33 52 -23 46 -35 -20 -35 -53 0 -64 -27 -51 -116 9
-64 -4 -118 -38 -149 -14 -13 -26 -34 -26 -45 0 -12 -4 -29 -10 -39 -11 -21
-26 -109 -41 -246 -6 -55 -12 -109 -14 -120 -1 -11 -3 -25 -4 -32 0 -7 -10
-21 -21 -31 l-21 -19 21 -6 c20 -5 20 -7 5 -42 -8 -21 -15 -58 -15 -83 l0 -45
23 20 c12 11 38 26 59 32 25 8 38 19 42 36 7 26 42 31 51 6 8 -20 -34 -61 -64
-62 -41 -1 -85 -32 -98 -70 -14 -41 -17 -116 -4 -123 12 -8 7 -39 -7 -44 -7
-2 -12 5 -12 17 0 11 -5 23 -12 27 -8 5 -9 -2 -5 -23 3 -17 1 -35 -4 -40 -12
-12 -40 -103 -32 -103 4 0 14 7 24 16 10 9 24 14 31 12 9 -3 2 -15 -20 -36
-31 -29 -62 -95 -62 -132 0 -22 -43 -38 -122 -47 -70 -7 -87 -23 -67 -59 17
-33 45 -47 139 -69 41 -9 80 -21 85 -25 20 -16 165 -48 171 -38 3 5 3 40 0 76
-5 47 -4 63 3 52 6 -8 11 -28 12 -45 0 -16 5 -39 10 -50 9 -20 5 32 -7 97 -6
29 13 48 27 27 5 -8 9 -37 9 -65 0 -40 5 -57 25 -78 41 -44 55 -33 66 52 4 30
9 56 12 58 8 8 52 -14 81 -41 26 -24 39 -27 115 -31 47 -3 106 -6 131 -8 l45
-3 3 -43 c3 -43 3 -43 -26 -37 -22 4 -34 1 -47 -13 -16 -18 -16 -20 10 -44 16
-15 36 -26 46 -26 23 0 20 10 25 -84 2 -44 7 -82 10 -85 3 -3 13 4 22 15 27
33 84 61 125 62 41 1 41 -10 3 -38 -11 -8 -43 -33 -72 -56 -28 -23 -68 -47
-90 -55 -52 -18 -101 -54 -119 -89 -23 -45 -18 -54 18 -28 17 14 46 30 64 36
28 9 33 8 38 -7 9 -31 -4 -901 -15 -920 -5 -10 -20 -21 -32 -25 -13 -3 -35
-23 -50 -43 -26 -33 -27 -41 -22 -102 6 -73 -8 -107 -38 -96 -25 10 -30 38
-13 71 28 54 14 83 -23 46 -9 -9 -24 -16 -33 -14 -12 2 -25 -19 -47 -74 -32
-81 -33 -99 -2 -89 20 6 36 -20 18 -31 -13 -9 -2 -147 18 -214 18 -60 39 -510
24 -510 -4 0 -11 5 -18 12 -17 17 -16 0 4 -75 11 -43 13 -67 5 -83 -7 -16 -3
-41 16 -100 14 -44 33 -110 44 -149 l19 -70 -5 108 c-5 104 -4 109 16 114 19
5 20 11 14 52 -3 25 -11 58 -17 73 -6 17 -8 53 -3 95 15 145 21 401 11 518
-11 144 -11 194 2 207 7 7 12 28 12 48 0 23 7 41 19 52 11 9 23 33 27 54 17
90 24 -19 30 -442 8 -493 -4 -784 -37 -959 -10 -55 -19 -101 -19 -102 0 -2
344 -3 764 -3 l764 0 5 53 c4 28 11 102 18 163 6 61 14 116 18 121 3 6 25 13
49 16 38 5 42 3 37 -12 -8 -25 3 -47 30 -65 26 -17 55 -12 55 10 0 8 5 14 10
14 6 0 10 -13 10 -30 0 -20 5 -30 15 -30 24 0 29 28 10 50 -16 17 -16 19 4 30
18 9 21 8 21 -9 0 -11 5 -23 11 -27 6 -3 9 -17 6 -31 -3 -18 -1 -23 10 -19 8
3 28 -1 45 -10 29 -15 32 -15 52 5 l20 21 -26 0 c-26 0 -46 14 -31 23 24 13
63 16 63 5 0 -7 14 -21 30 -30 17 -9 30 -24 30 -33 0 -8 4 -15 8 -15 5 0 9
-14 9 -30 0 -40 6 -44 42 -25 27 13 31 13 31 1 0 -19 14 -28 32 -21 24 9 15
91 -12 120 -27 28 -45 32 -54 10 -3 -8 -12 -15 -21 -15 -20 0 -20 49 1 57 8 3
13 11 10 18 -3 8 7 12 32 12 21 0 56 11 80 23 40 21 46 22 103 9 50 -11 59
-16 55 -31 -5 -20 18 -48 39 -48 25 0 26 -18 3 -85 -21 -64 -23 -68 -72 -89
-28 -13 -57 -30 -65 -39 -20 -25 -31 -21 -43 14 -12 35 -38 36 -53 2 -10 -23
-31 -33 -52 -26 -20 7 -15 20 10 28 14 4 18 8 9 12 -8 3 -19 0 -25 -6 -6 -6
-21 -11 -34 -11 -13 0 -32 -6 -43 -12 -15 -9 -22 -10 -31 -1 -9 9 -5 18 15 38
31 30 32 35 9 35 -13 0 -14 3 -5 12 35 35 -9 50 -75 26 -40 -15 -42 -23 -5
-36 l27 -9 -27 -13 c-23 -11 -31 -10 -53 4 -14 9 -25 25 -25 36 0 34 -34 23
-55 -17 -11 -20 -26 -42 -33 -50 -11 -10 -8 -12 15 -7 23 5 31 1 42 -19 7 -14
10 -34 6 -46 -6 -20 -3 -21 79 -21 50 0 94 5 105 12 15 9 25 9 46 0 38 -18
103 -15 123 5 16 16 17 16 20 0 3 -16 118 -17 1673 -17 l1669 0 0 3345 c0
2969 -2 3344 -15 3339 -18 -7 -20 16 -2 36 10 12 9 12 -5 1 -10 -7 -18 -22
-18 -33 0 -10 -7 -21 -15 -24 -8 -4 -15 -11 -15 -18 -1 -12 -50 -75 -50 -63 0
4 27 61 60 127 l60 120 0 1985 0 1985 -2056 0 -2055 0 5 -82z m185 -885 c0
-36 -3 -63 -9 -63 -6 0 -10 37 -9 93 2 103 16 79 18 -30z m-142 15 c-3 -8 -6
-5 -6 6 -1 11 2 17 5 13 3 -3 4 -12 1 -19z m8 -78 c3 -5 1 -10 -4 -10 -6 0
-11 5 -11 10 0 6 2 10 4 10 3 0 8 -4 11 -10z m5 -86 c0 -8 -5 -12 -10 -9 -6 4
-8 11 -5 16 9 14 15 11 15 -7z m134 -100 c3 -32 8 -223 11 -424 6 -284 5 -362
-5 -354 -12 12 -13 37 -25 585 -4 216 -2 269 12 256 2 -2 5 -30 7 -63z m842
-543 c20 16 19 -19 -2 -46 -13 -17 -16 -18 -24 -5 -6 8 -8 21 -5 28 3 8 6 21
6 30 1 14 2 14 6 -1 4 -14 8 -16 19 -6z m1040 -78 c4 -10 8 -31 8 -48 1 -18 6
-29 14 -27 13 2 16 -30 6 -90 -7 -39 -16 -41 -80 -23 -12 4 -25 2 -28 -4 -4
-6 -18 -6 -43 3 -30 10 -39 10 -52 -1 -9 -8 -34 -30 -56 -49 -22 -20 -52 -42
-67 -50 -27 -14 -38 -34 -18 -34 6 0 10 -9 10 -20 0 -11 7 -20 16 -20 8 0 13
-4 10 -8 -3 -5 10 -16 29 -25 18 -9 36 -25 40 -37 3 -11 11 -18 16 -15 5 4 9
-1 9 -10 0 -12 -5 -15 -17 -10 -43 17 -54 16 -90 -13 -25 -19 -55 -32 -83 -36
-25 -3 -55 -8 -67 -12 -18 -5 -23 -2 -23 13 0 10 -5 24 -12 31 -8 8 -8 15 2
27 19 23 -2 56 -51 79 -42 19 -60 17 -34 -4 23 -19 19 -39 -7 -33 -21 4 -21 4
2 -9 20 -11 24 -21 22 -46 -2 -25 2 -32 16 -32 10 0 23 -13 31 -31 14 -32 8
-50 -11 -31 -17 17 -33 15 -19 -2 8 -10 8 -16 -3 -25 -11 -9 -16 -9 -22 0 -11
19 -32 -16 -28 -49 2 -15 1 -20 -2 -12 -3 8 -8 22 -11 30 -6 14 -19 -33 -26
-91 -2 -14 -24 -52 -49 -85 -26 -33 -59 -86 -74 -117 -28 -56 -44 -72 -44 -41
0 25 -18 6 -40 -43 -11 -26 -38 -75 -60 -109 -22 -35 -44 -84 -50 -110 -14
-63 -19 -69 -37 -45 -18 27 -53 28 -53 1 0 -32 -34 -89 -52 -90 -10 0 -18 4
-18 10 0 5 -10 20 -22 34 -38 41 -45 51 -40 64 2 7 -5 12 -17 12 -13 0 -30 14
-46 40 -26 41 -33 66 -15 55 14 -9 -49 112 -66 126 -28 23 -14 67 39 126 16
18 23 20 34 11 17 -14 33 4 33 38 0 21 32 74 77 128 65 77 127 244 117 312 -6
41 -5 42 26 49 23 5 35 3 41 -6 4 -7 11 -11 14 -7 11 10 38 118 31 125 -3 3
-17 -4 -31 -17 -24 -22 -25 -22 -25 -4 0 25 18 44 41 44 9 0 26 16 38 35 41
70 141 101 161 50 14 -36 76 -95 99 -95 20 0 26 -10 37 -72 5 -33 11 -39 42
-48 44 -12 49 -6 57 70 13 121 17 138 36 156 11 10 17 25 14 34 -9 27 18 42
61 34 28 -5 39 -13 48 -35 6 -16 16 -29 22 -29 16 0 26 28 19 51 -4 12 1 22
17 30 17 9 23 9 26 -1 8 -23 43 -51 60 -48 11 2 16 12 15 28 -1 14 0 19 3 13
8 -18 25 -16 18 1 -7 17 25 36 60 36 14 0 28 5 31 10 10 16 32 12 41 -7z
m1651 -4 c12 -12 154 -48 193 -49 14 0 33 -9 43 -20 12 -15 13 -20 3 -20 -7 0
-25 -11 -39 -24 -23 -21 -25 -30 -23 -87 2 -48 8 -75 28 -109 26 -44 27 -47
18 -145 -5 -55 -9 -106 -10 -112 0 -7 -10 -13 -23 -13 -20 0 -22 -4 -19 -39 3
-31 0 -42 -19 -55 -38 -26 -99 -19 -99 13 0 9 14 38 30 65 31 49 34 63 24 131
-5 36 -3 42 25 63 35 25 41 63 15 89 -8 9 -12 23 -9 31 3 8 0 19 -7 24 -21 13
-93 9 -114 -6 -19 -15 -19 -15 1 -30 l20 -16 -20 -16 c-19 -15 -19 -15 7 -9
26 7 27 5 26 -30 -1 -20 -7 -39 -15 -42 -21 -8 -15 -30 13 -50 22 -16 25 -23
16 -39 -28 -50 -41 -118 -35 -175 6 -65 14 -77 33 -54 17 20 53 19 73 -3 20
-22 25 -70 9 -98 -6 -11 -10 -53 -10 -92 1 -61 5 -74 25 -92 19 -17 23 -30 23
-79 0 -62 -7 -74 -52 -85 -26 -6 -30 -12 -42 -68 -8 -33 -24 -35 -59 -8 -28
22 -53 26 -59 8 -10 -28 -37 4 -49 56 -9 44 -10 74 -1 139 16 110 18 274 4
317 -6 19 -16 64 -22 100 -7 37 -20 74 -31 85 -28 30 -44 157 -25 194 13 25
13 30 -2 44 -22 23 -1 47 23 27 8 -7 18 -10 22 -7 3 4 6 56 7 118 l1 111 37
34 c41 37 48 40 65 23z m-2682 -78 c2 -35 0 -61 -5 -61 -6 0 -10 30 -10 67 0
81 10 78 15 -6z m2973 11 c2 -7 -3 -12 -12 -12 -9 0 -16 7 -16 16 0 17 22 14
28 -4z m-2945 -142 c5 0 6 -18 2 -40 -6 -38 -5 -40 19 -40 18 0 24 -4 20 -15
-10 -25 -41 -17 -52 13 -6 15 -13 52 -15 82 -5 47 -4 51 6 28 6 -16 15 -28 20
-28z m-866 -37 c-4 -17 -4 -17 -12 0 -4 9 -4 25 0 35 8 16 8 16 12 0 3 -10 3
-26 0 -35z m1723 -173 c0 -5 -4 -10 -10 -10 -5 0 -10 5 -10 10 0 6 5 10 10 10
6 0 10 -4 10 -10z m160 -10 c0 -13 -20 -13 -40 0 -12 8 -9 10 13 10 15 0 27
-4 27 -10z m-456 -179 c11 -17 -77 -71 -115 -71 -27 0 25 38 67 50 31 9 41 16
32 21 -9 6 -9 9 -1 9 6 0 14 -4 17 -9z m723 -193 c44 -47 80 -122 97 -203 8
-38 16 -77 18 -85 2 -10 -6 -16 -27 -18 -63 -6 -73 -11 -90 -54 -9 -24 -17
-57 -17 -73 0 -41 38 -104 67 -111 26 -6 48 2 40 16 -3 4 1 13 9 19 18 15 33
-20 42 -97 8 -79 1 -89 -41 -57 -29 23 -39 25 -87 19 -29 -4 -68 -13 -87 -21
-42 -16 -54 -5 -45 45 8 40 -13 36 -39 -8 -20 -32 -87 -100 -100 -100 -5 0
-19 -8 -31 -17 -17 -14 -21 -24 -16 -49 10 -44 20 -56 41 -51 23 6 25 -15 3
-33 -8 -8 -14 -25 -12 -39 3 -24 8 -27 58 -32 30 -3 70 -14 88 -23 19 -10 40
-15 48 -12 8 3 14 -1 14 -10 0 -8 -4 -12 -10 -9 -6 3 -10 -5 -10 -19 0 -52
-103 -73 -183 -37 -61 27 -75 31 -92 24 -14 -5 -14 -8 -2 -22 27 -30 28 -57 4
-108 -13 -28 -31 -58 -40 -67 -9 -9 -21 -34 -27 -55 -12 -44 -50 -84 -73 -75
-9 3 -41 43 -72 90 -31 46 -74 97 -95 114 -23 18 -41 43 -45 60 -4 17 -11 30
-17 30 -6 0 -7 7 -3 18 5 9 11 51 14 92 l6 75 46 8 46 9 -23 76 c-28 90 -30
112 -9 112 10 0 15 10 15 33 0 18 18 70 40 115 22 44 40 86 40 92 0 5 4 10 9
10 5 0 14 12 20 28 10 23 36 60 97 135 8 9 14 22 14 28 0 5 4 8 9 4 5 -3 12 3
15 13 4 10 19 31 35 46 40 39 191 126 218 126 12 0 28 7 35 15 30 37 59 65 66
65 5 0 22 -15 39 -32z m-1537 17 c0 -10 -94 -135 -101 -135 -13 0 -71 90 -66
103 5 16 167 47 167 32z m-300 -34 c0 -15 -32 -36 -50 -33 -11 2 -20 -5 -23
-18 -3 -11 -12 -20 -20 -20 -16 0 -33 33 -20 38 4 2 24 11 43 21 38 21 70 26
70 12z m70 -1 c0 -5 -12 -10 -27 -9 -25 0 -26 1 -8 9 27 12 35 12 35 0z m-570
-165 c0 -5 -5 -3 -10 5 -5 8 -10 20 -10 25 0 6 5 3 10 -5 5 -8 10 -19 10 -25z
m-316 -147 c3 -25 9 -56 15 -67 15 -27 15 -27 -17 -40 -38 -16 -144 -10 -150
7 -2 7 6 16 18 19 16 4 19 8 8 15 -10 7 -9 11 6 23 16 12 17 17 6 30 -10 12
-8 21 11 50 13 19 33 36 44 37 13 2 21 12 23 28 4 22 6 20 18 -15 7 -22 16
-61 18 -87z m3896 103 c0 -28 -25 -118 -37 -132 -7 -8 -13 -31 -13 -50 0 -23
-3 -30 -9 -20 -5 8 -18 12 -29 9 -14 -4 -24 3 -36 22 -21 37 -21 37 13 55 19
9 32 26 36 44 8 37 41 81 61 81 8 0 14 -4 14 -9z m-4320 -45 c7 -9 22 -16 35
-16 12 0 30 -9 40 -20 10 -11 23 -20 29 -20 19 0 15 -53 -5 -81 -10 -15 -19
-31 -19 -36 0 -5 -16 -28 -36 -51 -23 -27 -34 -50 -32 -64 5 -35 21 -40 34
-10 l11 27 1 -32 c0 -18 -3 -33 -8 -33 -4 0 -10 -9 -13 -20 -4 -14 -10 -18
-23 -13 -14 5 -16 2 -12 -15 9 -33 -5 -27 -41 18 -36 45 -40 77 -27 250 10
144 12 153 35 141 10 -6 23 -17 31 -25z m4185 -56 c-3 -5 -14 -10 -24 -10 -9
0 -22 -5 -29 -12 -7 -7 -12 -8 -12 -2 0 12 36 32 58 33 7 1 10 -3 7 -9z
m-3640 -20 c-3 -5 -10 -10 -16 -10 -5 0 -9 5 -9 10 0 6 7 10 16 10 8 0 12 -4
9 -10z m3535 -29 c0 -10 -42 -23 -49 -15 -7 6 20 24 37 24 6 0 12 -4 12 -9z
m-109 -51 c-22 -19 -51 -27 -51 -15 0 6 59 34 70 34 3 0 -6 -9 -19 -19z m206
-28 c6 -24 6 -46 1 -102 -1 -11 -3 -20 -5 -20 -9 0 -53 91 -58 121 -7 35 -6
36 24 31 23 -3 33 -11 38 -30z m-138 -48 c10 -28 12 -54 6 -89 l-9 -50 -7 53
c-4 30 -17 66 -31 85 -13 17 -22 40 -20 50 3 16 6 17 25 4 12 -8 28 -32 36
-53z m498 -20 l21 -45 -25 -10 c-13 -5 -29 -7 -34 -3 -5 3 -9 -11 -9 -31 0
-48 -25 -58 -57 -21 -27 32 -28 50 -8 99 12 29 19 34 36 30 14 -4 25 0 31 11
14 25 22 20 45 -30z m-4307 -4 c0 -5 -10 -10 -22 -10 -19 0 -20 2 -8 10 19 13
30 13 30 0z m1717 -7 c-9 -9 -19 -14 -23 -11 -10 10 6 28 24 28 15 0 15 -1 -1
-17z m1783 -31 c0 -10 -68 -143 -80 -155 -4 -5 -24 8 -44 28 -41 41 -53 32
-41 -31 4 -25 2 -43 -9 -59 -14 -21 -13 -27 5 -65 11 -23 18 -47 16 -53 -2 -6
-12 7 -23 28 -10 22 -26 40 -34 40 -16 0 -198 -354 -199 -387 -1 -9 -5 -20
-11 -23 -12 -7 -80 24 -80 36 0 37 299 576 333 599 11 8 48 22 81 31 73 20 86
22 86 11z m-3440 -12 c0 -4 11 -5 25 -2 16 3 25 0 25 -8 0 -10 3 -10 14 0 10
8 20 8 32 2 15 -8 12 -12 -21 -21 -21 -5 -42 -8 -47 -5 -9 6 -38 11 -82 17
-39 4 -28 26 13 25 23 0 41 -4 41 -8z m4512 -18 c10 -10 9 -20 -1 -50 -25 -74
-44 -112 -58 -112 -7 0 -13 -6 -13 -14 0 -18 -46 -66 -64 -66 -8 0 -19 7 -24
15 -4 9 -18 17 -30 18 -12 1 -22 5 -22 10 0 4 -5 5 -10 2 -19 -12 -59 24 -83
75 -27 55 -21 70 17 45 24 -16 26 -15 89 34 63 48 85 56 159 56 15 0 33 -6 40
-13z m-4603 -38 c36 -30 39 -44 11 -44 -34 0 -41 -30 -14 -69 26 -38 24 -51
-10 -51 -32 0 -146 59 -146 75 0 7 -6 16 -12 18 -7 3 -3 6 8 6 13 1 24 9 27
22 5 20 7 20 29 5 35 -25 46 -20 53 24 4 22 11 40 15 40 5 0 22 -12 39 -26z
m3848 -176 c-2 -29 -3 -8 -3 47 0 55 1 79 3 53 2 -26 2 -71 0 -100z m-910 64
c7 -29 0 -36 -28 -27 -17 6 -19 9 -8 16 11 7 11 11 2 17 -7 4 -10 17 -6 31 6
23 7 23 20 5 8 -10 16 -29 20 -42z m-152 -2 c38 0 27 -22 -19 -37 -29 -10 -43
-10 -67 0 l-30 12 28 32 c27 31 28 31 45 12 9 -10 28 -19 43 -19z m-623 -4 c6
4 8 2 5 -4 -8 -11 -47 -5 -47 8 0 15 25 17 28 3 2 -7 8 -10 14 -7z m1447 -106
c1 -13 0 -13 -9 0 -5 8 -9 26 -9 40 l1 25 8 -25 c4 -14 8 -32 9 -40z m-2842
-22 c-3 -8 -6 -5 -6 6 -1 11 2 17 5 13 3 -3 4 -12 1 -19z m1114 -11 c-10 -9
-11 -8 -5 6 3 10 9 15 12 12 3 -3 0 -11 -7 -18z m879 -6 c0 -3 -11 -11 -24
-17 -21 -10 -25 -9 -30 9 -3 11 -3 24 0 28 5 9 54 -10 54 -20z m158 -86 c-16
-60 -32 -66 -54 -24 -10 19 -12 35 -7 36 25 9 46 32 49 54 4 43 6 44 16 13 7
-22 6 -44 -4 -79z m830 0 l15 -30 -27 26 c-17 16 -28 39 -32 65 l-5 39 17 -35
c9 -19 23 -48 32 -65z m-4602 18 c-10 -10 -19 5 -10 18 6 11 8 11 12 0 2 -7 1
-15 -2 -18z m1652 -20 c5 -10 10 -35 10 -56 1 -20 6 -46 12 -56 5 -11 10 -38
10 -60 0 -27 5 -43 16 -49 14 -8 31 -82 19 -82 -3 0 -19 7 -38 16 -34 16 -34
16 -45 118 -7 55 -12 120 -12 144 0 44 13 55 28 25z m-1620 -15 c-3 -25 -17
-32 -37 -19 -19 12 -6 41 19 41 16 0 21 -5 18 -22z m4482 -88 c8 -19 31 -60
52 -90 46 -67 62 -150 84 -453 7 -92 -3 -94 -55 -15 -25 38 -36 69 -41 113 -9
78 -69 415 -75 425 -7 12 7 72 15 63 4 -4 13 -24 20 -43z m-2653 -40 c-1 -44
-3 -80 -4 -80 -13 0 -43 39 -43 55 0 16 40 105 47 105 1 0 1 -36 0 -80z
m-1797 -71 c-7 -11 -14 -18 -17 -15 -3 3 0 12 7 21 18 21 23 19 10 -6z m-40
-80 c-24 -46 -40 -40 -40 16 1 28 2 29 15 12 13 -18 14 -18 26 2 23 35 21 15
-1 -30z m1782 -112 c3 -66 1 -103 -4 -93 -13 24 -32 181 -24 201 14 37 24 -2
28 -108z m3172 68 c-1 -17 -3 -48 -5 -70 -4 -38 -3 -40 23 -38 29 2 44 -22 34
-55 -5 -14 -14 -17 -45 -14 -39 4 -40 3 -52 -37 -10 -33 -17 -41 -35 -41 -43
0 -54 52 -33 150 9 41 17 54 37 63 33 14 42 26 42 55 0 17 5 22 18 20 12 -2
17 -12 16 -33z m-5014 -86 c-17 -35 -28 -53 -24 -39 9 34 46 112 50 107 2 -2
-9 -33 -26 -68z m3843 56 c-3 -9 -8 -14 -10 -11 -3 3 -2 9 2 15 9 16 15 13 8
-4z m-311 -32 c6 -16 13 -39 14 -52 4 -30 24 -53 24 -28 0 14 8 17 38 16 27
-2 48 4 69 19 33 24 58 28 68 12 3 -5 19 -10 35 -10 38 0 40 -6 25 -60 -7 -25
-20 -79 -29 -120 -26 -115 -133 -305 -250 -442 -23 -27 -44 -48 -48 -48 -4 0
-10 11 -14 25 -6 26 -78 120 -92 120 -4 0 -26 15 -50 34 -29 24 -45 47 -53 74
-6 22 -16 48 -22 58 -9 15 -8 25 6 48 9 16 17 41 17 55 0 20 5 26 21 26 21 0
79 56 79 77 0 7 5 12 12 11 13 -3 28 45 35 115 3 30 10 47 18 47 8 0 19 8 24
18 8 13 10 14 11 2 0 -10 5 -7 16 8 20 29 32 28 46 -5z m-1565 -135 c26 -86
36 -142 27 -151 -8 -7 -46 11 -56 27 -5 7 -8 4 -8 -6 0 -10 -4 -18 -10 -18
-12 0 -13 27 -1 34 14 9 20 78 11 126 -8 44 -6 60 8 60 4 0 17 -33 29 -72z
m-2180 -65 c14 -24 23 -46 20 -49 -3 -3 -11 5 -18 18 -6 12 -23 36 -35 51 -13
16 -24 33 -24 39 0 18 30 -13 57 -59z m2114 -75 c1 -7 1 -19 0 -25 -1 -7 2
-13 8 -13 20 0 40 -99 45 -219 3 -68 10 -129 16 -135 5 -5 10 -30 9 -55 0 -35
-2 -41 -9 -26 -5 11 -9 32 -9 48 -1 15 -5 35 -11 45 -13 23 -58 262 -63 335
-2 31 0 57 5 57 4 0 9 -6 9 -12z m-380 -171 c53 -163 36 -286 -49 -341 -35
-23 -126 -46 -181 -46 -21 0 -23 2 -11 10 8 5 34 10 58 10 47 0 55 15 17 32
-59 27 -138 165 -194 341 -35 109 -34 107 -22 107 5 0 17 -24 26 -52 41 -125
81 -218 122 -283 51 -79 100 -135 120 -135 30 0 92 53 107 91 29 72 16 203
-29 304 -16 37 -35 105 -34 125 1 22 36 -61 70 -163z m-14 141 c-3 -7 -5 -2
-5 12 0 14 2 19 5 13 2 -7 2 -19 0 -25z m-777 3 c0 -5 -7 -12 -16 -15 -24 -9
-28 -7 -14 9 14 17 30 20 30 6z m727 -117 c7 -18 -32 -107 -58 -130 -25 -22
-31 -4 -18 56 15 71 60 115 76 74z m3290 -96 c-3 -7 -5 -2 -5 12 0 14 2 19 5
13 2 -7 2 -19 0 -25z m-4380 -4 c-3 -3 -12 -4 -19 -1 -8 3 -5 6 6 6 11 1 17
-2 13 -5z m1860 -16 c-3 -8 -6 -5 -6 6 -1 11 2 17 5 13 3 -3 4 -12 1 -19z
m-1522 -18 c-3 -5 -12 -10 -18 -10 -7 0 -6 4 3 10 19 12 23 12 15 0z m4052
-12 c-3 -8 -6 -5 -6 6 -1 11 2 17 5 13 3 -3 4 -12 1 -19z m-3843 -14 c9 -23
-23 -84 -57 -108 -21 -16 -32 -18 -45 -10 -21 13 -29 74 -10 74 7 1 31 14 53
30 48 34 51 35 59 14z m3403 -124 c2 -40 4 -75 7 -77 2 -2 24 2 50 9 35 9 49
9 58 0 18 -18 -9 -42 -46 -42 -61 0 -63 -6 -69 -210 -3 -102 -11 -204 -18
-228 -15 -56 -49 -82 -103 -81 -30 2 -34 3 -13 6 15 2 27 6 27 8 0 1 -15 25
-33 51 -39 60 -83 169 -132 329 -20 66 -44 138 -55 160 -10 22 -19 47 -20 55
-5 33 1 70 9 70 10 0 38 -77 47 -127 25 -141 157 -488 199 -523 14 -11 19 -10
35 6 32 31 43 182 35 448 -5 188 -4 227 7 224 9 -3 14 -27 15 -78z m-3547 -25
c-7 -9 -15 -13 -19 -10 -3 3 1 10 9 15 21 14 24 12 10 -5z m2355 -19 c362 -4
551 -9 553 -16 2 -6 -29 -10 -85 -11 -48 -1 -113 -4 -143 -9 -44 -6 -28 -7 80
-9 74 -1 141 -5 147 -9 15 -9 77 -317 69 -345 -3 -13 0 -17 12 -15 9 2 17 10
17 18 0 23 88 36 137 20 46 -16 52 -23 43 -51 -6 -18 -14 -20 -50 -17 -34 2
-41 0 -33 -9 8 -10 1 -13 -30 -13 -23 0 -45 -6 -52 -15 -7 -8 -19 -15 -26 -15
-8 0 -14 -4 -14 -10 0 -5 -5 -10 -11 -10 -6 0 -17 -6 -24 -12 -8 -7 -29 -24
-48 -38 -36 -25 -62 -58 -54 -67 3 -2 27 7 53 21 81 41 153 66 189 66 31 0 42
-43 19 -77 -15 -24 -20 -25 -74 -20 -48 5 -69 2 -121 -19 -92 -38 -151 -81
-144 -105 4 -11 2 -19 -4 -19 -6 0 -11 -11 -11 -25 0 -16 -6 -25 -16 -25 -18
0 -151 -68 -160 -81 -3 -5 -22 -16 -42 -25 -52 -21 -142 -80 -210 -136 -31
-26 -63 -48 -69 -48 -7 0 -13 -4 -13 -10 0 -5 -9 -10 -20 -10 -10 0 -23 -6
-27 -13 -4 -6 -21 -18 -38 -26 -53 -23 -89 -39 -125 -54 -19 -8 -48 -20 -65
-27 -16 -7 -37 -14 -45 -15 -27 -3 -60 -17 -60 -25 0 -8 -58 -26 -73 -22 -4 1
-10 -5 -13 -13 -4 -8 -14 -15 -24 -15 -24 0 -35 -17 -35 -54 0 -24 -6 -31 -32
-40 -44 -15 -74 -42 -67 -61 14 -36 -23 -1 -60 56 -54 84 -111 284 -89 315 15
21 146 84 175 84 16 0 43 7 59 16 37 19 145 54 168 54 36 0 42 16 17 43 -14
15 -20 27 -14 27 7 0 7 4 0 13 -6 6 -11 15 -12 19 -9 37 -14 48 -21 48 -5 0
-6 7 -3 15 4 8 1 15 -6 15 -7 0 -10 7 -6 15 3 8 1 15 -5 15 -6 0 -7 5 -4 11 4
6 -1 17 -11 24 -14 11 -15 14 -5 15 11 0 9 4 -5 15 -14 10 -15 14 -5 15 11 0
9 4 -5 15 -11 8 -14 15 -6 15 19 0 14 20 -5 20 -14 0 -15 2 -5 9 11 6 10 10
-3 15 -14 5 -15 9 -5 21 10 12 9 15 -5 15 -14 0 -15 3 -5 15 10 12 10 15 -4
15 -19 0 -22 20 -3 20 6 0 4 5 -5 11 -10 5 -18 15 -18 20 0 6 5 7 10 4 6 -3
10 -1 10 4 0 6 -7 11 -15 11 -18 0 -20 20 -2 20 6 1 1 7 -13 15 -20 11 -21 14
-7 15 10 0 15 5 12 10 -4 6 -11 7 -17 4 -7 -5 -9 0 -6 14 4 12 2 22 -3 22 -5
0 -9 7 -9 16 0 9 5 13 13 9 6 -4 4 0 -5 8 -19 15 -25 32 -8 22 6 -3 10 -2 10
3 0 6 -8 13 -17 16 -15 6 -15 8 -3 16 13 8 12 10 -2 10 -20 0 -25 20 -5 20 7
1 6 5 -5 13 -9 7 -19 33 -23 58 -4 24 -11 50 -17 57 -8 8 -7 12 3 13 11 0 11
2 1 6 -7 3 -19 18 -27 33 -15 28 -14 29 13 27 24 -2 27 2 28 28 1 17 2 33 3
36 0 3 38 4 84 3 45 -1 329 -5 632 -8z m-1062 -28 c8 -31 -2 -131 -13 -142 -7
-7 -10 22 -10 77 0 83 11 113 23 65z m-1276 6 c-3 -3 -12 -4 -19 -1 -8 3 -5 6
6 6 11 1 17 -2 13 -5z m13 -34 c0 -5 -8 -10 -17 -10 -15 0 -16 2 -3 10 19 12
20 12 20 0z m1260 -213 c0 -12 -4 -28 -9 -35 -12 -20 -23 12 -15 44 7 28 24
22 24 -9z m-515 -122 c-32 -26 -93 -51 -102 -41 -3 3 6 10 21 16 15 5 43 21
63 35 45 30 58 23 18 -10z m-135 -55 c0 -5 -11 -10 -25 -10 -14 0 -25 5 -25
10 0 6 11 10 25 10 14 0 25 -4 25 -10z m2 -97 c-2 -7 -10 -13 -17 -13 -7 0
-28 -3 -46 -6 l-34 -6 45 43 c44 43 44 43 50 19 4 -14 5 -31 2 -37z m3038 8
c14 -27 -12 -52 -53 -51 -18 0 -52 -2 -77 -5 -32 -4 -39 -2 -25 4 11 5 29 10
41 10 11 1 30 15 42 31 26 34 57 39 72 11z m-4935 -31 c-3 -6 -10 -10 -16 -10
-10 0 -12 33 -2 44 9 9 26 -22 18 -34z m4606 19 c20 -20 20 -21 2 -34 -21 -17
-69 -19 -78 -4 -4 5 -4 21 -1 35 8 31 47 33 77 3z m-2529 -29 c34 -10 36 -13
28 -35 -5 -13 -8 -42 -7 -64 0 -22 -4 -50 -10 -63 -6 -13 -14 -40 -18 -61 -5
-29 -13 -41 -33 -49 -43 -18 -52 -17 -52 3 0 23 -16 25 -28 3 -13 -23 -46 -13
-50 14 -3 16 -10 22 -29 22 -18 0 -24 4 -19 15 3 8 1 15 -4 15 -6 0 -10 7 -10
15 0 20 -26 19 -34 -1 -6 -15 -8 -15 -26 1 -13 11 -18 25 -14 37 3 10 0 18 -6
18 -7 0 -14 -9 -17 -20 -6 -24 -16 -25 -33 -5 -16 19 -36 19 -43 1 -7 -18 -54
-26 -67 -11 -8 9 -7 14 2 18 7 2 10 7 7 11 -3 3 -18 -5 -32 -18 -16 -14 -29
-20 -33 -15 -3 6 -12 8 -19 5 -7 -2 -17 0 -24 7 -7 7 -20 5 -45 -8 -27 -15
-38 -16 -49 -7 -8 7 -27 10 -46 6 -25 -5 -31 -3 -31 10 0 12 -4 15 -17 8 -29
-14 -116 -5 -125 13 -6 10 -17 13 -34 9 -13 -4 -24 -2 -24 4 0 6 -9 8 -21 5
-11 -3 -31 0 -44 7 -13 7 -35 10 -49 8 -14 -3 -26 -2 -26 2 0 4 51 10 113 13
69 3 133 13 167 25 44 14 70 17 130 12 41 -4 84 -3 95 0 11 4 29 4 40 -1 11
-4 34 -5 50 -3 17 3 44 0 60 -7 29 -11 39 -13 98 -17 19 -1 27 -7 27 -20 0
-18 34 -23 58 -8 8 5 12 -1 12 -18 0 -20 5 -26 23 -26 12 0 31 7 41 15 19 14
18 15 -14 15 -26 0 -31 3 -22 12 19 19 14 38 -10 38 -19 0 -20 2 -8 11 11 8
12 12 3 16 -7 2 -13 11 -13 18 0 13 19 17 140 28 19 2 40 4 45 5 6 1 27 -3 47
-8z m2332 -64 c7 -65 1 -86 -26 -86 -15 0 -18 4 -13 18 4 9 10 41 13 70 2 28
8 52 12 52 4 0 10 -24 14 -54z m-3594 25 c0 -5 9 -7 20 -4 12 3 20 0 20 -7 0
-9 -10 -11 -32 -6 -40 8 -61 26 -30 26 12 0 22 -4 22 -9z m3280 -161 c0 -5 -5
-10 -11 -10 -5 0 -7 5 -4 10 3 6 8 10 11 10 2 0 4 -4 4 -10z m307 -12 c-3 -8
-6 -5 -6 6 -1 11 2 17 5 13 3 -3 4 -12 1 -19z m-3687 -48 c11 -8 7 -9 -15 -4
-37 8 -45 14 -19 14 10 0 26 -5 34 -10z m3624 -97 c23 -81 66 -364 54 -357 -4
3 -11 -13 -14 -36 l-7 -40 -69 0 c-53 0 -70 4 -75 16 -5 13 -8 12 -24 -5 -10
-11 -25 -34 -32 -53 l-14 -33 -16 36 c-19 45 -38 52 -202 74 -143 19 -201 33
-215 50 -16 20 -1 65 26 77 13 6 24 16 24 22 0 6 16 22 34 36 19 14 33 27 33
30 -3 8 42 50 53 50 5 0 16 13 24 29 21 40 87 69 182 81 43 6 99 17 124 24 64
21 108 20 114 -1z m-1953 -360 c-10 -17 -10 -16 -11 3 0 23 13 41 18 25 2 -6
-1 -18 -7 -28z m-1599 -67 c18 11 48 12 48 2 0 -5 11 -6 24 -2 13 3 27 1 30
-4 3 -6 15 -8 26 -5 14 4 20 0 20 -11 0 -9 -3 -16 -7 -16 -5 0 -21 -16 -36
-35 -29 -36 -22 -49 9 -17 17 16 18 16 11 -1 -4 -10 -7 -25 -7 -33 0 -9 -4
-13 -9 -9 -14 8 -2 -133 15 -178 13 -34 12 -40 -3 -63 -16 -25 -17 -25 -24 -6
-4 11 -12 23 -18 27 -6 3 -11 19 -11 35 0 16 -5 32 -11 36 -6 3 -9 19 -5 35 3
15 1 31 -4 34 -6 3 -10 1 -10 -4 0 -24 -21 -9 -27 19 -9 48 -23 46 -23 -3 0
-45 -22 -72 -34 -41 -3 9 -11 12 -17 8 -6 -3 -14 -1 -18 5 -5 7 -12 2 -21 -14
-11 -21 -12 -33 -2 -57 10 -27 9 -31 -8 -35 -16 -4 -20 -14 -20 -49 0 -23 5
-46 10 -49 6 -3 10 -13 10 -22 0 -20 49 -133 67 -154 7 -8 13 -26 13 -38 0
-13 4 -20 11 -16 6 4 13 -2 16 -14 3 -12 9 -21 14 -21 5 0 9 -9 9 -21 0 -11 5
-29 11 -40 10 -20 11 -20 31 -2 21 18 21 18 13 -7 -5 -14 -7 -49 -6 -77 1 -56
-13 -70 -39 -38 -18 21 -30 19 -31 -7 -1 -19 -2 -20 -6 -5 -3 11 -11 26 -20
35 -32 37 -64 96 -84 155 -11 34 -29 82 -41 107 -11 25 -26 61 -33 81 -7 19
-24 58 -38 85 -14 27 -33 77 -42 109 -22 75 -33 88 -41 47 -4 -18 -11 -35 -15
-38 -12 -7 -11 -91 1 -114 5 -10 12 -38 14 -61 2 -24 9 -45 15 -47 15 -5 14
-35 -1 -50 -17 -17 -48 -15 -49 3 -2 21 -3 24 -24 70 -11 25 -19 68 -20 116
-3 90 -8 103 -35 87 -16 -11 -17 -14 -5 -21 22 -12 19 -47 -4 -47 -14 0 -18 5
-14 19 3 10 0 22 -6 25 -18 12 -12 43 10 49 18 5 19 8 7 26 -7 11 -9 24 -5 28
5 4 12 1 17 -7 8 -13 10 -13 10 2 0 11 6 15 20 11 11 -3 20 -1 20 5 0 17 -23
29 -67 37 -23 3 -47 13 -53 20 -18 21 -70 -20 -70 -54 0 -14 -11 -56 -24 -94
-24 -67 -22 -83 8 -71 11 4 16 0 16 -13 0 -10 5 -24 11 -30 7 -7 0 -30 -23
-77 -27 -56 -34 -63 -40 -46 -5 12 -15 20 -25 18 -14 -2 -19 7 -24 43 -4 26
-12 56 -18 67 -6 11 -11 41 -11 66 0 25 -5 48 -11 52 -6 3 -9 22 -7 40 2 19 0
34 -4 34 -4 0 -8 16 -8 35 l0 35 63 -6 62 -6 12 39 c6 21 24 59 38 86 22 38
32 47 53 46 50 -1 64 -14 82 -70 18 -53 18 -54 19 -17 1 42 42 98 72 98 10 0
24 -9 31 -20 13 -21 38 -27 38 -10 0 6 14 10 31 10 17 0 39 4 49 10 35 19 53
2 46 -44 -6 -38 -5 -40 9 -22 8 11 15 32 15 46 0 42 17 51 56 28 19 -11 39
-16 46 -12z m800 -248 c-2 -49 -8 -86 -13 -83 -4 3 -24 -19 -44 -50 -33 -52
-77 -86 -91 -72 -4 4 -1 13 6 22 8 10 10 29 6 60 -6 36 -4 45 7 45 8 0 17 12
20 28 4 15 30 52 59 84 29 31 53 55 54 55 0 -1 -2 -41 -4 -89z m-1231 52 c5 0
9 -5 9 -11 0 -15 -43 -7 -48 10 -3 10 0 12 12 8 10 -4 22 -7 27 -7z m4709 -70
c0 -5 -9 -10 -21 -10 -11 0 -17 5 -14 10 3 6 13 10 21 10 8 0 14 -4 14 -10z
m-3960 -64 c0 -8 -6 -16 -12 -19 -10 -3 -10 -7 -2 -18 21 -26 23 -82 3 -121
-10 -20 -14 -38 -9 -40 15 -5 43 -122 30 -126 -5 -2 -10 -14 -10 -27 0 -13 -7
-31 -17 -40 -15 -16 -17 -16 -25 0 -5 9 -7 33 -3 54 8 46 -3 56 -50 47 -27 -5
-35 -12 -40 -36 -8 -38 -25 -49 -25 -16 0 28 17 47 72 82 38 24 51 54 23 54
-8 0 -25 -10 -36 -21 -17 -17 -23 -19 -30 -8 -14 23 -10 40 17 77 19 24 29 52
33 91 5 48 9 56 26 54 11 -1 24 5 28 13 10 18 27 18 27 0z m3955 4 c3 -5 1
-10 -4 -10 -6 0 -11 5 -11 10 0 6 2 10 4 10 3 0 8 -4 11 -10z m-4765 -75 c-15
-28 -30 -33 -30 -9 0 28 21 57 33 45 8 -8 7 -18 -3 -36z m4760 25 c0 -5 -6
-10 -14 -10 -9 0 -12 -8 -8 -26 5 -27 -11 -92 -34 -135 -7 -14 -16 -46 -20
-70 -8 -51 -18 -75 -46 -105 -11 -12 -27 -37 -36 -55 -15 -30 -23 -34 -59 -37
-24 -2 -43 1 -43 5 0 5 16 26 35 48 21 23 33 44 30 54 -3 9 4 41 15 71 11 30
20 60 20 67 0 7 11 28 24 47 14 20 26 58 30 90 6 42 11 54 22 49 8 -3 14 0 14
6 0 6 16 11 35 11 19 0 35 -4 35 -10z m-4103 -74 c-33 -42 -47 -44 -47 -6 0
21 8 38 23 50 20 17 23 18 34 3 11 -14 9 -22 -10 -47z m313 38 c0 -8 -5 -12
-10 -9 -6 4 -8 11 -5 16 9 14 15 11 15 -7z m60 -11 c0 -20 -3 -24 -11 -16 -7
7 -9 19 -6 27 10 24 17 19 17 -11z m-100 -8 c0 -8 -2 -15 -4 -15 -2 0 -6 7
-10 15 -3 8 -1 15 4 15 6 0 10 -7 10 -15z m-841 -77 c-3 -27 2 -39 26 -60 41
-36 29 -78 -24 -84 -30 -3 -31 -2 -24 24 4 15 6 41 5 57 -2 33 5 75 14 75 3 0
4 -6 3 -12z m-49 -112 c0 -26 -5 -35 -22 -39 -30 -8 -37 2 -13 19 11 8 20 20
21 27 4 41 14 36 14 -7z m531 11 c-10 -9 -11 -8 -5 6 3 10 9 15 12 12 3 -3 0
-11 -7 -18z m-616 -89 c13 -44 -2 -118 -24 -118 -15 0 -23 123 -9 132 20 12
25 10 33 -14z m75 7 c0 -8 -7 -15 -16 -15 -14 0 -14 3 -4 15 7 8 14 15 16 15
2 0 4 -7 4 -15z m178 -51 c62 16 72 16 72 0 0 -16 2 -15 20 1 12 11 20 13 20
6 0 -12 -59 -71 -71 -71 -7 0 -49 -66 -49 -76 0 -2 7 -4 15 -4 12 0 13 -4 2
-27 -9 -21 -9 -27 1 -31 19 -6 15 -114 -5 -157 -12 -25 -26 -38 -45 -42 -14
-3 -29 -11 -32 -19 -3 -8 -9 -14 -14 -14 -11 0 -3 45 14 78 7 13 10 31 6 40
-5 13 -7 12 -13 -4 -5 -11 -6 -2 -2 22 3 24 0 51 -7 64 -6 12 -17 54 -24 93
-10 62 -14 72 -31 69 -17 -2 -20 4 -22 38 -1 42 7 50 27 25 16 -19 39 -19 46
0 4 8 9 13 14 10 4 -2 16 2 26 10 16 11 20 11 27 -1 5 -8 16 -13 25 -10z m736
-120 c4 -20 14 -47 22 -58 12 -19 12 -25 -2 -44 -31 -44 -42 -30 -61 76 -3 18
-11 32 -19 32 -23 0 -27 26 -9 53 l16 25 23 -23 c13 -13 27 -40 30 -61z m-260
-9 c3 -38 6 -80 6 -92 0 -12 7 -38 16 -58 17 -42 16 -125 -2 -125 -6 0 -17 -6
-23 -14 -14 -17 -55 -26 -73 -15 -7 4 -18 3 -25 -3 -9 -8 -15 -4 -23 16 -11
30 5 76 27 76 24 0 14 16 -19 31 -18 8 -39 27 -47 43 -12 26 -12 31 5 43 16
11 21 10 46 -14 27 -26 28 -26 43 -7 8 11 15 14 15 7 0 -7 4 -13 9 -13 5 0 3
14 -6 30 -12 24 -12 37 -4 62 15 43 14 51 -6 44 -17 -6 -17 -5 -1 7 10 8 22
26 28 42 16 41 27 21 34 -60z m96 -12 c0 -10 -14 -26 -30 -35 -36 -21 -39 -6
-5 27 29 30 35 31 35 8z m-230 -34 c0 -5 -4 -8 -9 -4 -5 3 -12 -4 -16 -15 -9
-28 -25 -25 -25 5 0 20 5 25 25 25 14 0 25 -5 25 -11z m40 2 c0 -5 -7 -14 -15
-21 -13 -10 -15 -9 -15 9 0 12 6 21 15 21 8 0 15 -4 15 -9z m-339 -303 c-6
-27 -11 -59 -11 -70 0 -11 -16 -52 -35 -89 -19 -38 -35 -76 -35 -84 0 -11 -11
-15 -37 -15 -46 0 -75 15 -54 29 10 7 11 13 2 30 -8 13 -8 21 -2 21 6 0 14 12
17 28 4 15 11 33 17 39 5 7 7 40 5 73 -2 33 -1 60 3 60 4 0 9 -21 11 -47 l3
-48 29 57 c16 31 33 55 37 52 5 -2 16 7 25 21 16 24 18 25 27 9 6 -11 6 -34
-2 -66z m-413 19 c-12 -18 -29 -32 -36 -29 -7 2 -32 -16 -55 -39 -23 -24 -45
-42 -49 -41 -4 1 -11 -13 -16 -31 -8 -31 -10 -32 -57 -29 -27 1 -50 4 -52 6
-8 7 26 57 53 78 16 12 45 36 64 54 23 20 54 36 90 45 30 7 59 16 64 21 20 17
17 -2 -6 -35z m826 -169 c4 -26 2 -49 -2 -52 -8 -5 -29 65 -35 119 -1 11 -6
25 -10 31 -3 6 -3 14 1 18 10 11 39 -61 46 -116z m78 104 c-1 -9 6 -12 20 -10
36 5 35 -29 -1 -50 -17 -9 -32 -24 -33 -32 -2 -10 -6 -11 -10 -4 -4 6 2 20 12
32 28 30 26 44 -5 30 -21 -10 -27 -8 -39 8 -11 14 -11 22 -4 32 14 17 64 12
60 -6z m-932 -41 c0 -26 -19 -56 -21 -34 -5 50 -3 63 8 63 8 0 13 -12 13 -29z
m5063 -76 l36 -15 -26 -51 -27 -51 -17 34 c-18 34 -24 79 -12 91 8 9 5 9 46
-8z m-4073 -35 c0 -5 -5 -10 -11 -10 -5 0 -7 5 -4 10 3 6 8 10 11 10 2 0 4 -4
4 -10z m96 -40 c-1 -32 -29 -51 -48 -32 -13 13 -6 47 9 47 6 0 15 3 19 8 14
14 21 7 20 -23z m-5 -183 c-8 -8 -11 -6 -11 6 0 9 -7 17 -16 17 -14 0 -14 2 0
22 14 20 14 24 -1 40 -15 17 -15 18 1 18 9 0 20 8 24 18 4 10 8 -9 10 -47 2
-36 -2 -69 -7 -74z m-68 103 c-3 -11 -10 -23 -16 -27 -5 -3 -8 -2 -5 3 3 5 8
17 11 27 9 24 16 22 10 -3z m-58 -34 c12 -11 12 -17 1 -31 -8 -11 -18 -15 -25
-10 -9 5 -9 11 -3 17 6 6 8 17 5 24 -7 18 5 18 22 0z m68 -46 c-3 -11 -9 -20
-13 -20 -4 0 -10 9 -13 20 -4 15 0 20 13 20 13 0 17 -5 13 -20z m4157 -27 c-1
-18 -18 -35 -24 -24 -4 6 -4 16 -1 21 7 12 25 13 25 3z m-2376 -172 c-11 -47
-58 -161 -66 -161 -4 0 -8 9 -8 20 0 28 39 148 50 155 5 3 6 13 3 23 -6 15 -5
15 10 3 12 -9 15 -22 11 -40z m10 -213 c-2 -51 -6 -158 -8 -238 -3 -90 -13
-179 -25 -235 -11 -49 -29 -130 -40 -180 -35 -157 -49 -327 -42 -500 2 -44 3
-47 12 -25 16 40 27 108 44 277 21 213 27 233 66 233 23 0 23 2 4 -186 -19
-193 -35 -273 -133 -654 l-47 -185 -8 80 c-12 121 -16 590 -6 675 5 41 21 108
35 148 21 58 25 83 20 123 -4 31 -3 49 4 49 15 0 12 26 -5 40 -19 16 -19 30 0
30 22 0 30 26 60 187 30 162 30 187 -2 191 -12 2 -25 12 -28 22 -6 20 20 70
37 70 7 0 8 21 3 56 -6 52 -5 58 21 85 15 16 31 29 35 29 4 0 6 -42 3 -92z
m2243 86 c-3 -3 -12 -4 -19 -1 -8 3 -5 6 6 6 11 1 17 -2 13 -5z m-4547 -104
c0 -16 -4 -30 -10 -30 -5 0 -10 14 -10 30 0 17 5 30 10 30 6 0 10 -13 10 -30z
m4 -149 c2 -34 -1 -61 -6 -61 -4 0 -8 30 -8 67 0 82 11 77 14 -6z m503 -4 c-4
-23 -13 -67 -22 -97 -22 -80 -37 -244 -29 -325 6 -61 5 -68 -8 -57 -11 9 -16
45 -20 143 -5 111 -3 139 13 184 10 29 21 89 25 133 6 77 8 81 27 71 16 -9 18
-18 14 -52z m4111 1 c-7 -18 -24 -53 -40 -78 -15 -25 -35 -59 -44 -77 -20 -38
-44 -51 -44 -24 0 42 63 170 98 199 30 23 42 15 30 -20z m-4580 -152 c-56 -36
-58 -37 -58 -21 0 16 39 36 53 28 5 -3 7 -6 5 -7z m1612 -106 c0 -17 -7 -56
-15 -88 -8 -31 -17 -70 -20 -87 -6 -27 -8 -28 -17 -11 -23 40 13 216 44 216 4
0 8 -14 8 -30z m-1527 -75 c-37 -72 -116 -156 -131 -141 -8 9 17 51 65 109 25
28 52 61 60 72 24 29 28 2 6 -40z m4382 -45 c-11 -17 -35 9 -35 38 l0 25 21
-27 c11 -14 17 -31 14 -36z m-3885 -4 c16 -50 17 -314 1 -344 -8 -16 -9 -39
-1 -84 13 -84 3 -168 -19 -161 -9 3 -21 11 -26 17 -6 6 -21 17 -33 24 -29 16
-33 5 -27 -63 3 -27 8 -98 11 -156 6 -97 5 -108 -13 -125 -39 -37 -43 -58 -43
-245 0 -100 -3 -180 -6 -176 -3 3 -7 185 -9 404 -2 286 -6 407 -15 431 -7 19
-15 30 -19 24 -3 -5 -20 -9 -37 -9 l-31 0 10 40 c7 27 20 45 43 60 19 12 34
27 34 33 0 6 7 18 16 25 15 13 16 9 12 -44 -3 -32 -1 -60 3 -63 17 -10 39 58
59 177 37 222 42 249 51 249 5 0 9 10 9 22 0 30 15 12 30 -36z m1698 -63 c-3
-38 -14 -48 -36 -34 -10 6 -9 14 5 39 24 42 35 40 31 -5z m2159 -5 c-3 -8 -6
-5 -6 6 -1 11 2 17 5 13 3 -3 4 -12 1 -19z m-4347 -98 c0 -6 -7 -13 -15 -16
-8 -4 -15 -10 -15 -15 0 -25 -113 -120 -126 -106 -12 11 19 48 79 97 63 51 77
58 77 40z m-380 -482 c0 -38 -5 -34 -13 10 -4 21 -3 31 3 27 6 -3 10 -20 10
-37z m1732 -565 c2 -87 -1 -166 -5 -176 -5 -11 -17 -17 -30 -15 -20 3 -23 11
-30 83 -10 99 -3 231 13 250 7 8 21 15 31 15 17 0 18 -13 21 -157z m645 45
c-3 -8 -6 -5 -6 6 -1 11 2 17 5 13 3 -3 4 -12 1 -19z m233 -39 c0 -30 -49
-160 -79 -209 -13 -21 -39 -52 -139 -164 -25 -27 -101 -78 -112 -74 -14 5 44
63 77 77 18 7 40 22 49 33 16 16 16 21 4 28 -8 6 -27 10 -42 10 -28 0 -48 23
-48 55 0 12 5 15 17 11 36 -14 125 71 223 213 19 28 38 51 43 51 4 0 7 -14 7
-31z m-263 -101 c-3 -7 -5 -2 -5 12 0 14 2 19 5 13 2 -7 2 -19 0 -25z m-1626
-135 c-9 -16 -10 -14 -11 12 0 21 3 26 11 18 8 -8 8 -16 0 -30z m-695 -82 c9
-54 -10 -50 -20 5 -4 19 -10 43 -13 52 -5 15 -4 15 10 2 9 -8 19 -35 23 -59z
m671 -58 c-3 -10 -5 -2 -5 17 0 19 2 27 5 18 2 -10 2 -26 0 -35z m-643 -45 c8
-33 8 -33 -19 -33 -39 0 -33 49 6 54 4 1 9 -9 13 -21z m4771 -3 c30 -9 70 -29
91 -45 20 -17 43 -30 50 -30 14 0 44 -27 44 -40 0 -5 -14 -11 -31 -15 -22 -5
-34 -3 -42 9 -9 12 -38 17 -118 22 -95 5 -111 3 -148 -15 l-41 -21 1 27 c2
105 71 143 194 108z m-849 -112 c17 -23 18 -75 2 -92 -11 -11 -9 -11 10 -2 19
10 27 8 62 -20 31 -25 37 -35 30 -49 -15 -28 -60 -52 -85 -46 l-22 6 20 -45
c14 -29 27 -45 39 -45 33 0 19 -18 -19 -25 -52 -8 -119 16 -115 41 7 48 13 64
27 64 16 0 30 18 21 27 -3 3 -12 0 -21 -7 -19 -15 -34 -5 -17 12 16 16 15 45
0 51 -10 3 -5 20 15 61 15 31 27 63 27 71 0 20 10 19 26 -2z m86 -35 c-6 -6
-16 -7 -22 -3 -9 6 -9 9 1 16 17 10 34 0 21 -13z m36 -30 c-3 -7 -11 -13 -18
-13 -7 0 -15 6 -17 13 -3 7 4 12 17 12 13 0 20 -5 18 -12z m-3423 -156 c-13
-13 -16 12 -8 75 l8 68 3 -69 c2 -37 0 -71 -3 -74z m1391 -75 c4 -4 2 -12 -4
-20 -15 -18 -80 -9 -92 13 -8 15 -4 17 40 15 28 -1 53 -5 56 -8z"/>
<path d="M8911 8804 c-22 -28 -28 -88 -11 -114 8 -12 10 -9 10 13 0 71 63 154
72 95 4 -30 38 -37 38 -8 0 13 -9 24 -26 30 -41 16 -61 12 -83 -16z"/>
<path d="M8988 8744 c-30 -16 -43 -49 -36 -89 4 -18 1 -25 -10 -25 -13 0 -14
-2 -3 -12 10 -11 15 -10 25 5 18 23 41 21 58 -5 11 -17 12 -28 5 -39 -14 -22
-2 -49 21 -49 27 0 39 60 16 77 -18 13 -24 85 -9 117 6 13 5 17 -2 13 -6 -4
-13 0 -17 8 -7 18 -13 18 -48 -1z"/>
<path d="M9131 8574 c0 -11 3 -14 6 -6 3 7 2 16 -1 19 -3 4 -6 -2 -5 -13z"/>
<path d="M9120 8493 c0 -5 5 -15 10 -23 8 -12 10 -11 10 8 0 12 -4 22 -10 22
-5 0 -10 -3 -10 -7z"/>
<path d="M8956 8363 c-4 -5 -14 -23 -22 -42 -11 -27 -12 -46 -2 -102 6 -38 14
-69 18 -69 7 0 19 44 36 130 3 19 11 41 16 47 22 27 -22 60 -46 36z"/>
<path d="M8520 7850 c0 -16 46 -41 64 -34 12 5 8 10 -21 25 -43 22 -43 22 -43
9z"/>
<path d="M8614 7838 c-4 -7 2 -18 14 -26 12 -8 22 -21 22 -28 0 -8 7 -14 15
-14 18 0 21 50 3 68 -15 15 -45 15 -54 0z"/>
<path d="M11244 8566 c-4 -10 -2 -22 4 -28 8 -8 13 -7 18 6 4 10 2 22 -4 28
-8 8 -13 7 -18 -6z"/>
<path d="M9730 7835 c-103 -30 -118 -36 -131 -51 -11 -14 -5 -15 62 -9 l74 6
-55 -34 c-95 -60 -102 -67 -89 -83 6 -8 24 -14 40 -14 18 0 32 -7 38 -19 12
-22 51 -37 107 -40 50 -2 119 44 140 94 7 18 18 36 24 40 16 10 11 58 -10 93
-19 31 -21 32 -87 31 -38 0 -88 -6 -113 -14z m30 -145 c0 -5 -10 -10 -22 -10
-19 0 -20 2 -8 10 19 13 30 13 30 0z"/>
<path d="M11490 7466 c0 -9 5 -16 10 -16 6 0 10 4 10 9 0 6 -4 13 -10 16 -5 3
-10 -1 -10 -9z"/>
<path d="M11515 7421 c-3 -5 -1 -12 5 -16 5 -3 10 1 10 9 0 18 -6 21 -15 7z"/>
<path d="M10821 6913 c0 -15 4 -37 9 -48 7 -16 9 -11 9 22 1 23 -3 45 -9 48
-6 4 -10 -6 -9 -22z"/>
<path d="M8670 6011 c8 -5 98 -14 199 -20 221 -13 213 -13 207 -3 -3 5 -36 10
-73 11 -37 1 -120 6 -183 11 -146 12 -170 12 -150 1z"/>
<path d="M9098 5983 c7 -3 16 -2 19 1 4 3 -2 6 -13 5 -11 0 -14 -3 -6 -6z"/>
<path d="M6140 4409 c0 -11 5 -17 10 -14 6 3 10 13 10 21 0 8 -4 14 -10 14 -5
0 -10 -9 -10 -21z"/>
<path d="M6790 4239 c0 -5 5 -7 10 -4 6 3 10 8 10 11 0 2 -4 4 -10 4 -5 0 -10
-5 -10 -11z"/>
<path d="M6210 3834 c0 -8 5 -12 10 -9 6 3 10 10 10 16 0 5 -4 9 -10 9 -5 0
-10 -7 -10 -16z"/>
<path d="M6630 3530 c0 -5 5 -10 10 -10 6 0 10 5 10 10 0 6 -4 10 -10 10 -5 0
-10 -4 -10 -10z"/>
<path d="M10085 60 c3 -5 11 -10 16 -10 6 0 7 5 4 10 -3 6 -11 10 -16 10 -6 0
-7 -4 -4 -10z"/>
<path d="M3371 10596 c-9 -11 -10 -110 -2 -423 19 -734 23 -833 33 -839 20
-13 31 18 30 83 -24 978 -31 1193 -42 1193 -4 0 -13 -6 -19 -14z"/>
<path d="M5794 6764 c-3 -19 -1 -61 5 -91 13 -68 14 -86 2 -78 -16 10 -22 -12
-10 -39 14 -30 29 -34 30 -8 1 17 10 -10 29 -85 10 -39 14 -43 40 -43 26 0 30
4 30 28 0 50 -30 152 -61 212 -17 33 -33 78 -36 100 -7 50 -20 52 -29 4z"/>
<path d="M5810 6456 c0 -8 5 -18 10 -21 6 -3 10 3 10 14 0 12 -4 21 -10 21 -5
0 -10 -6 -10 -14z"/>
<path d="M6520 6084 c0 -8 5 -12 10 -9 6 3 10 10 10 16 0 5 -4 9 -10 9 -5 0
-10 -7 -10 -16z"/>
<path d="M5738 5994 c-10 -19 -18 -38 -18 -42 0 -9 79 -46 85 -40 2 2 -9 29
-23 60 l-27 57 -17 -35z"/>
<path d="M5790 5870 c-12 -23 2 -27 19 -6 8 9 8 16 2 20 -6 4 -15 -3 -21 -14z"/>
<path d="M5696 5824 c-4 -10 -1 -14 6 -12 15 5 23 28 10 28 -5 0 -13 -7 -16
-16z"/>
<path d="M6310 5780 c0 -5 5 -10 10 -10 6 0 10 5 10 10 0 6 -4 10 -10 10 -5 0
-10 -4 -10 -10z"/>
<path d="M5815 5750 c19 -21 45 -27 45 -10 0 11 -33 30 -51 30 -8 0 -5 -7 6
-20z"/>
<path d="M6235 5290 c3 -5 13 -10 21 -10 8 0 12 5 9 10 -3 6 -13 10 -21 10 -8
0 -12 -4 -9 -10z"/>
<path d="M5734 4733 c-19 -39 -29 -81 -33 -131 -3 -39 -4 -72 -1 -72 11 1 111
240 105 251 -4 5 -15 9 -25 9 -13 0 -27 -18 -46 -57z"/>
<path d="M5831 2525 c0 -11 3 -38 7 -59 7 -39 7 -39 18 -15 10 20 8 31 -7 59
-13 26 -18 30 -18 15z"/>
<path d="M5870 2428 c-6 -24 -15 -56 -20 -72 -17 -51 -13 -62 15 -36 32 30 34
6 3 -28 l-23 -24 26 7 c22 5 27 3 32 -17 18 -74 79 -201 120 -251 15 -19 14
-14 -4 33 -12 30 -28 75 -36 100 -8 25 -22 61 -30 80 -28 68 -31 75 -42 116
-6 23 -11 60 -11 82 0 56 -17 62 -30 10z"/>
<path d="M5500 2315 c0 -8 7 -15 15 -15 8 0 15 -5 15 -11 0 -6 7 -9 15 -5 8 3
15 2 15 -3 0 -11 -35 -21 -72 -21 -32 0 -44 -15 -28 -35 10 -12 9 -15 -3 -15
-26 0 -37 -33 -37 -107 0 -57 -3 -70 -20 -81 -14 -9 -20 -23 -20 -50 0 -64
-48 -344 -84 -494 -55 -226 -170 -537 -283 -762 l-54 -108 43 6 c41 6 44 5 55
-24 9 -23 18 -30 40 -31 15 -1 46 -3 68 -4 22 -1 50 -5 63 -9 16 -5 24 -3 28
8 6 17 44 23 44 7 0 -17 222 -40 430 -44 80 -2 85 -3 88 -25 4 -23 4 -23 91
-1 20 5 41 4 52 -1 22 -12 69 -13 87 -1 11 7 12 26 3 102 -6 52 -15 153 -21
224 -6 72 -15 159 -20 195 -25 177 -31 229 -44 403 -14 182 -16 190 -43 224
-15 19 -42 55 -60 79 -49 69 -73 97 -73 88 0 -4 -7 1 -16 12 -8 10 -13 14 -9
7 5 -11 -23 -33 -44 -33 -14 0 -34 67 -29 100 3 19 -1 31 -10 35 -11 4 -12 8
-2 20 7 9 8 15 2 15 -5 0 -10 25 -9 58 0 74 -6 167 -11 153 -7 -22 -22 -10
-21 17 2 44 -9 114 -19 124 -6 6 -15 3 -24 -6 -13 -13 -17 -12 -31 5 -20 23
-67 26 -67 4z"/>
<path d="M5741 2175 c0 -46 2 -56 10 -42 7 11 7 32 1 60 l-10 42 -1 -60z"/>
<path d="M6290 2214 c0 -8 5 -12 10 -9 6 4 8 11 5 16 -9 14 -15 11 -15 -7z"/>
<path d="M6286 2083 c-4 -4 -15 -25 -25 -48 -10 -22 -39 -63 -64 -91 -49 -54
-56 -69 -34 -77 10 -3 100 32 113 45 2 3 11 38 18 79 14 68 10 110 -8 92z"/>
<path d="M5930 1662 c0 -15 28 -47 35 -40 8 8 -13 48 -25 48 -6 0 -10 -4 -10
-8z"/>
<path d="M5955 453 c-7 -19 18 -48 33 -39 13 8 4 43 -13 50 -7 2 -16 -3 -20
-11z"/>
<path d="M7810 315 c0 -9 7 -18 15 -21 8 -4 15 -12 15 -20 0 -8 5 -14 10 -14
15 0 12 22 -6 48 -18 26 -34 29 -34 7z"/>
<path d="M5796 222 c-3 -6 -1 -14 5 -17 15 -10 25 3 12 16 -7 7 -13 7 -17 1z"/>
<path d="M5930 210 c0 -5 7 -10 16 -10 8 0 12 5 9 10 -3 6 -10 10 -16 10 -5 0
-9 -4 -9 -10z"/>
<path d="M5365 81 c-6 -11 9 -23 19 -14 9 9 7 23 -3 23 -6 0 -12 -4 -16 -9z"/>
</g>
</svg>
